HIERARCHY
ROOT joint_Root
{
	OFFSET 0.0 0.0 0.0
	CHANNELS 6 Xposition Yposition Zposition Zrotation Xrotation Yrotation 
	JOINT Hips
	{
		OFFSET 4.5925 91.4895 -427.239
		CHANNELS 6 Xposition Yposition Zposition Zrotation Xrotation Yrotation 
		JOINT Spine
		{
			OFFSET 15.7357 0.0 0.0
			CHANNELS 6 Xposition Yposition Zposition Zrotation Xrotation Yrotation 
			JOINT Chest
			{
				OFFSET 8.98455 -0.406207 0.0
				CHANNELS 6 Xposition Yposition Zposition Zrotation Xrotation Yrotation 
				JOINT Neck
				{
					OFFSET 16.3773 0.0 0.0
					CHANNELS 6 Xposition Yposition Zposition Zrotation Xrotation Yrotation 
					JOINT Head
					{
						OFFSET 6.45672 0.0 0.0
						CHANNELS 6 Xposition Yposition Zposition Zrotation Xrotation Yrotation 
						End Site
						{
							OFFSET 0.0 0.0 0.0
						}
					}
				}
				JOINT Shoulder_L
				{
					OFFSET 12.9942 -0.242716 4.98039
					CHANNELS 6 Xposition Yposition Zposition Zrotation Xrotation Yrotation 
					JOINT UpperArm_L
					{
						OFFSET 5.34809 0.0 0.0
						CHANNELS 6 Xposition Yposition Zposition Zrotation Xrotation Yrotation 
						JOINT LowerArm_L
						{
							OFFSET 24.3286 1.87007e-05 0.0
							CHANNELS 6 Xposition Yposition Zposition Zrotation Xrotation Yrotation 
							JOINT Hand_L
							{
								OFFSET 22.2916 0.0 0.0
								CHANNELS 6 Xposition Yposition Zposition Zrotation Xrotation Yrotation 
								End Site
								{
									OFFSET 0.0 0.0 0.0
								}
							}
						}
					}
				}
				JOINT Shoulder_R
				{
					OFFSET 12.9945 -0.242716 -4.98039
					CHANNELS 6 Xposition Yposition Zposition Zrotation Xrotation Yrotation 
					JOINT UpperArm_R
					{
						OFFSET -5.34813 0.0 0.0
						CHANNELS 6 Xposition Yposition Zposition Zrotation Xrotation Yrotation 
						JOINT LowerArm_R
						{
							OFFSET -24.3289 0.000322201 0.0
							CHANNELS 6 Xposition Yposition Zposition Zrotation Xrotation Yrotation 
							JOINT Hand_R
							{
								OFFSET -22.2915 -0.000108084 0.0
								CHANNELS 6 Xposition Yposition Zposition Zrotation Xrotation Yrotation 
								End Site
								{
									OFFSET 0.0 0.0 0.0
								}
							}
						}
					}
				}
			}
		}
		JOINT UpperLeg_L
		{
			OFFSET -2.19248 -6.46944 0.0
			CHANNELS 6 Xposition Yposition Zposition Zrotation Xrotation Yrotation 
			JOINT LowerLeg_L
			{
				OFFSET 39.0811 0.0 -1.23785e-05
				CHANNELS 6 Xposition Yposition Zposition Zrotation Xrotation Yrotation 
				JOINT Foot_L
				{
					OFFSET 40.9854 0.0 -1.26872e-05
					CHANNELS 6 Xposition Yposition Zposition Zrotation Xrotation Yrotation 
					JOINT Toes_L
					{
						OFFSET 11.7543 0.0 0.0
						CHANNELS 6 Xposition Yposition Zposition Zrotation Xrotation Yrotation 
						End Site
						{
							OFFSET 0.0 0.0 0.0
						}
					}
				}
			}
		}
		JOINT UpperLeg_R
		{
			OFFSET -2.19251 6.46944 0.0
			CHANNELS 6 Xposition Yposition Zposition Zrotation Xrotation Yrotation 
			JOINT LowerLeg_R
			{
				OFFSET -39.0811 -0.00228153 -0.0401928
				CHANNELS 6 Xposition Yposition Zposition Zrotation Xrotation Yrotation 
				JOINT Foot_R
				{
					OFFSET -40.9854 0.0 0.0
					CHANNELS 6 Xposition Yposition Zposition Zrotation Xrotation Yrotation 
					JOINT Toes_R
					{
						OFFSET -11.7543 0.0 0.0
						CHANNELS 6 Xposition Yposition Zposition Zrotation Xrotation Yrotation 
						End Site
						{
							OFFSET 0.0 0.0 0.0
						}
					}
				}
			}
		}
	}
}
MOTION
Frames:	4
Frame Time:	0.0333333
0.000000 0.000000 0.000000 0.000000 0.000000 -0.000000 1.484790 90.932500 2.419130 88.290400 -8.893650 4.923440 15.735700 0.000005 -0.000001 85.410800 86.126100 -81.649300 8.984550 -0.406207 -0.000000 -0.003096 -0.874436 7.518510 16.377300 -0.000001 -0.000001 6.709240 -3.726210 -0.945893 6.456720 -0.000001 -0.000000 0.664841 -5.576300 3.806350 12.994200 -0.242716 4.980390 -83.616000 -12.087200 -61.883600 5.348090 -0.000007 -0.000001 -18.842000 -68.459600 -55.785500 24.328600 0.000019 0.000005 8.197080 7.538360 -47.675200 22.291600 -0.000001 0.000005 22.635000 5.394850 -2.771030 12.994500 -0.242716 -4.980390 87.545600 8.812090 -74.368300 -5.348130 -0.000001 -0.000004 -55.318800 18.644500 -2.053310 -24.328900 0.000322 -0.000009 -0.791687 -1.872020 -22.901200 -22.291500 -0.000108 -0.000004 18.996700 5.428900 -3.901200 -2.192480 -6.469440 -0.000000 -176.327000 -13.386800 -1.567750 39.081100 -0.000007 -0.000012 -0.173228 0.313587 28.916800 40.985400 -0.000006 -0.000013 0.099556 -0.428644 -72.250300 11.754300 -0.000000 0.000003 -0.000108 -0.001094 -16.619500 -2.192510 6.469440 -0.000001 174.512000 19.883200 178.040000 -39.081100 -0.002282 -0.040193 -0.116991 0.228308 27.785200 -40.985400 0.000008 0.000006 4.547850 19.550900 -71.031600 -11.754300 -0.000006 -0.000006 -0.002106 -0.030038 -17.794500
0.000000 0.000000 0.000000 0.000000 0.000000 -0.000000 1.347080 90.982800 2.397540 88.458700 -8.294740 4.838760 15.735700 0.000005 -0.000001 84.516400 86.139800 -80.990600 8.984550 -0.406207 -0.000000 -0.041099 -0.977505 7.047130 16.377300 -0.000001 -0.000001 6.432640 -4.057900 -0.845732 6.456720 -0.000001 -0.000000 0.707683 -5.961860 3.817270 12.994200 -0.242716 4.980390 -83.919400 -11.640900 -62.168500 5.348090 -0.000007 -0.000001 -18.823300 -65.978500 -53.195600 24.328600 0.000019 0.000005 8.709600 6.765080 -52.441400 22.291600 -0.000001 0.000005 22.787400 5.389890 -2.611970 12.994500 -0.242716 -4.980390 87.522900 8.832530 -74.265400 -5.348130 -0.000001 -0.000004 -55.950400 18.932200 -2.092560 -24.328900 0.000322 -0.000009 -0.860239 -2.052000 -22.725200 -22.291500 -0.000108 -0.000004 19.049700 5.427700 -3.860330 -2.192480 -6.469440 -0.000000 -176.387000 -13.279300 -1.590120 39.081100 -0.000007 -0.000012 -0.169516 0.310960 28.596700 40.985400 -0.000006 -0.000013 0.130502 0.036496 -72.014500 11.754300 -0.000000 0.000003 -0.000103 -0.001059 -16.618100 -2.192510 6.469440 -0.000001 174.551000 19.899700 178.064000 -39.081100 -0.002282 -0.040193 -0.109631 0.215651 27.641400 -40.985400 0.000008 0.000006 4.709310 18.902000 -71.078300 -11.754300 -0.000006 -0.000006 -0.002150 -0.030574 -17.816300
0.000000 0.000000 0.000000 0.000000 0.000000 -0.000000 1.196610 91.040200 2.359880 88.614900 -7.585650 4.753580 15.735700 0.000005 -0.000001 83.715200 86.134700 -80.414800 8.984550 -0.406207 -0.000000 -0.042477 -1.070710 6.596510 16.377300 -0.000001 -0.000001 5.999520 -4.362040 -0.707448 6.456720 -0.000001 -0.000000 0.752588 -6.221420 3.610160 12.994200 -0.242716 4.980390 -84.445400 -10.837500 -62.651100 5.348090 -0.000007 -0.000001 -18.480300 -62.735300 -49.734400 24.328600 0.000019 0.000005 9.585720 5.965290 -58.391200 22.291600 -0.000001 0.000005 22.682900 5.378710 -2.257700 12.994500 -0.242716 -4.980390 87.500500 8.854840 -74.167500 -5.348130 -0.000001 -0.000004 -56.622300 19.437400 -2.179280 -24.328900 0.000322 -0.000009 -0.908416 -2.215690 -22.276400 -22.291500 -0.000108 -0.000004 19.114200 5.425340 -3.779790 -2.192480 -6.469440 -0.000000 -176.446000 -13.031200 -1.629760 39.081100 -0.000007 -0.000012 -0.162817 0.302917 28.258100 40.985400 -0.000006 -0.000013 0.158697 0.518872 -71.747900 11.754300 -0.000000 0.000003 -0.000118 -0.001186 -16.622900 -2.192510 6.469440 -0.000001 174.548000 20.224000 178.158000 -39.081100 -0.002282 -0.040193 -0.103880 0.206691 27.410700 -40.985400 0.000008 0.000006 4.700260 18.464500 -71.016100 -11.754300 -0.000006 -0.000006 -0.002279 -0.032162 -17.880900
0.000000 0.000000 0.000000 0.000000 0.000000 -0.000000 1.030370 91.082200 2.307730 88.707700 -6.836180 4.674940 15.735700 0.000005 -0.000001 83.737700 86.099700 -80.635900 8.984550 -0.406207 -0.000000 0.024377 -1.060030 6.200020 16.377300 -0.000001 -0.000001 5.347390 -4.681060 -0.505027 6.456720 -0.000001 -0.000000 0.728844 -6.429310 3.239140 12.994200 -0.242716 4.980390 -85.155600 -9.725250 -63.356500 5.348090 -0.000007 -0.000001 -18.461600 -58.746900 -45.960000 24.328600 0.000019 0.000005 10.625600 4.984050 -65.149900 22.291600 -0.000001 0.000005 22.226200 5.362060 -1.742150 12.994500 -0.242716 -4.980390 87.465800 8.915300 -74.061500 -5.348130 -0.000001 -0.000004 -57.334700 19.838600 -2.202760 -24.328900 0.000322 -0.000009 -0.923785 -2.317190 -21.720100 -22.291500 -0.000108 -0.000004 18.879200 5.424510 -3.751640 -2.192480 -6.469440 -0.000000 -176.403000 -12.851200 -1.726770 39.081100 -0.000007 -0.000012 -0.157162 0.294905 28.054400 40.985400 -0.000006 -0.000013 0.199898 1.115460 -71.537700 11.754300 -0.000000 0.000003 -0.000109 -0.001109 -16.620000 -2.192510 6.469440 -0.000001 174.532000 20.779300 178.266000 -39.081100 -0.002282 -0.040193 -0.114004 0.228361 27.190200 -40.985400 0.000008 0.000006 4.517000 18.292500 -70.883100 -11.754300 -0.000006 -0.000006 -0.002058 -0.029442 -17.770300
